<svg xmlns="http://www.w3.org/2000/svg" viewBox="0 0 420 120" width="420" height="120" role="img" aria-labelledby="title"><title id="title">Season Regular: a sage enamel plaque with clover endcaps</title><defs>
<linearGradient id="gold" x2=".8" y2="1"><stop stop-color="#eedca8"/><stop offset=".5" stop-color="#c7a25c"/><stop offset="1" stop-color="#a98242"/></linearGradient>
<radialGradient id="felt"><stop stop-color="#204b39"/><stop offset="1" stop-color="#09231c"/></radialGradient>
<pattern id="weave" width="6" height="6" patternUnits="userSpaceOnUse"><path d="M0 1H6M1 0V6" stroke="#c6d6aa" stroke-opacity=".07" stroke-width=".6"/></pattern>
<pattern id="hatch" width="6" height="6" patternUnits="userSpaceOnUse" patternTransform="rotate(45)"><path d="M0 0V6" stroke="#c8a45b" stroke-opacity=".12" stroke-width="1"/></pattern>
</defs><rect x="24" y="25" width="372" height="70" rx="32" fill="#203c32" stroke="#88a28d" stroke-width="2"/><path d="M81 34H339M81 86H339" stroke="#728f7a" stroke-width=".7"/><g transform="translate(62 57) scale(0.47)"><path d="M-4 14C-21 31 -34 2 -15 -3C-29 -28 27 -28 15 -3C34 2 21 31 4 14C3 24 7 29 10 31H-10C-7 29 -3 24 -4 14Z" fill="#b7c6a0" /></g><g transform="translate(358 57) scale(0.47)"><path d="M-4 14C-21 31 -34 2 -15 -3C-29 -28 27 -28 15 -3C34 2 21 31 4 14C3 24 7 29 10 31H-10C-7 29 -3 24 -4 14Z" fill="#b7c6a0" /></g><text x="210" y="67" text-anchor="middle" fill="#e5ce91" font-family="Georgia,serif" font-size="21" letter-spacing="1.5" style="fill:#d2dbc0">SEASON REGULAR</text></svg>
