<svg xmlns="http://www.w3.org/2000/svg" viewBox="0 0 240 240" width="240" height="240" role="img" aria-labelledby="title"><title id="title">Season Regular title badge: a fan of cards with a clover crest</title><defs>
<linearGradient id="gold" x2=".8" y2="1"><stop stop-color="#eedca8"/><stop offset=".5" stop-color="#c7a25c"/><stop offset="1" stop-color="#a98242"/></linearGradient>
<radialGradient id="felt"><stop stop-color="#204b39"/><stop offset="1" stop-color="#09231c"/></radialGradient>
<pattern id="weave" width="6" height="6" patternUnits="userSpaceOnUse"><path d="M0 1H6M1 0V6" stroke="#c6d6aa" stroke-opacity=".07" stroke-width=".6"/></pattern>
<pattern id="hatch" width="6" height="6" patternUnits="userSpaceOnUse" patternTransform="rotate(45)"><path d="M0 0V6" stroke="#c8a45b" stroke-opacity=".12" stroke-width="1"/></pattern>
</defs><circle cx="120" cy="120" r="102" fill="#203c32" stroke="#91ac91" stroke-width="3"/><circle cx="120" cy="120" r="93" fill="url(#weave)" stroke="#748e77" stroke-dasharray="2 5"/><g transform="rotate(-19 120 157)"><rect x="91" y="62" width="58" height="104" rx="5" fill="#b9c6a2" stroke="#294b39" stroke-width="2"/><rect x="96" y="67" width="48" height="94" rx="3" fill="none" stroke="#708a6c" stroke-width=".8"/></g><g transform="rotate(0 120 157)"><rect x="91" y="62" width="58" height="104" rx="5" fill="#b9c6a2" stroke="#294b39" stroke-width="2"/><rect x="96" y="67" width="48" height="94" rx="3" fill="none" stroke="#708a6c" stroke-width=".8"/></g><g transform="rotate(19 120 157)"><rect x="91" y="62" width="58" height="104" rx="5" fill="#b9c6a2" stroke="#294b39" stroke-width="2"/><rect x="96" y="67" width="48" height="94" rx="3" fill="none" stroke="#708a6c" stroke-width=".8"/></g><g transform="translate(120 109) scale(0.67)"><path d="M-4 14C-21 31 -34 2 -15 -3C-29 -28 27 -28 15 -3C34 2 21 31 4 14C3 24 7 29 10 31H-10C-7 29 -3 24 -4 14Z" fill="#274b39" /></g><path d="M70 178Q120 200 170 178M84 188Q120 204 156 188" fill="none" stroke="#91ac91" stroke-width="1.5"/><circle cx="120" cy="40" r="3" fill="#bdc8a1"/></svg>
