<svg xmlns="http://www.w3.org/2000/svg" viewBox="0 0 240 240" width="240" height="240" role="img" aria-labelledby="title"><title id="title">Season Archive: porcelain keepsake with a season scroll and olive sprigs</title><defs>
<linearGradient id="gold" x2=".8" y2="1"><stop stop-color="#eedca8"/><stop offset=".5" stop-color="#c7a25c"/><stop offset="1" stop-color="#a98242"/></linearGradient>
<radialGradient id="felt"><stop stop-color="#204b39"/><stop offset="1" stop-color="#09231c"/></radialGradient>
<pattern id="weave" width="6" height="6" patternUnits="userSpaceOnUse"><path d="M0 1H6M1 0V6" stroke="#c6d6aa" stroke-opacity=".07" stroke-width=".6"/></pattern>
<pattern id="hatch" width="6" height="6" patternUnits="userSpaceOnUse" patternTransform="rotate(45)"><path d="M0 0V6" stroke="#c8a45b" stroke-opacity=".12" stroke-width="1"/></pattern>
</defs><circle cx="120" cy="120" r="101" fill="#e8dcc0" stroke="#b89a59" stroke-width="4"/><circle cx="120" cy="120" r="91" fill="url(#hatch)" stroke="#b89a59" stroke-width="1"/><g transform="translate(120 113) scale(1 1)"><path d="M-8 74C-100 67 -90 -35 -26 -70" fill="none" stroke="#345744" stroke-width="2"/><g transform="translate(-62.92 30.69) rotate(-50)"><path d="M0 0C-7 -17 -1 -24 2 -30C13 -18 13 -9 0 0Z" fill="#345744"/><path d="M0 -2L3 -24" fill="none" stroke="#725727" stroke-width=".7"/></g><g transform="translate(-68.47 14.55) rotate(-64)"><path d="M0 0C-7 -17 -1 -24 2 -30C13 -18 13 -9 0 0Z" fill="#345744"/><path d="M0 -2L3 -24" fill="none" stroke="#725727" stroke-width=".7"/></g><g transform="translate(-69.96 -2.44) rotate(-78)"><path d="M0 0C-7 -17 -1 -24 2 -30C13 -18 13 -9 0 0Z" fill="#345744"/><path d="M0 -2L3 -24" fill="none" stroke="#725727" stroke-width=".7"/></g><g transform="translate(-67.29 -19.29) rotate(-92)"><path d="M0 0C-7 -17 -1 -24 2 -30C13 -18 13 -9 0 0Z" fill="#345744"/><path d="M0 -2L3 -24" fill="none" stroke="#725727" stroke-width=".7"/></g><g transform="translate(-60.62 -35) rotate(-106)"><path d="M0 0C-7 -17 -1 -24 2 -30C13 -18 13 -9 0 0Z" fill="#345744"/><path d="M0 -2L3 -24" fill="none" stroke="#725727" stroke-width=".7"/></g><g transform="translate(-50.35 -48.63) rotate(-120)"><path d="M0 0C-7 -17 -1 -24 2 -30C13 -18 13 -9 0 0Z" fill="#345744"/><path d="M0 -2L3 -24" fill="none" stroke="#725727" stroke-width=".7"/></g><g transform="translate(-37.09 -59.36) rotate(-134)"><path d="M0 0C-7 -17 -1 -24 2 -30C13 -18 13 -9 0 0Z" fill="#345744"/><path d="M0 -2L3 -24" fill="none" stroke="#725727" stroke-width=".7"/></g><g transform="translate(-21.63 -66.57) rotate(-148)"><path d="M0 0C-7 -17 -1 -24 2 -30C13 -18 13 -9 0 0Z" fill="#345744"/><path d="M0 -2L3 -24" fill="none" stroke="#725727" stroke-width=".7"/></g><g transform="translate(-4.88 -69.83) rotate(-162)"><path d="M0 0C-7 -17 -1 -24 2 -30C13 -18 13 -9 0 0Z" fill="#345744"/><path d="M0 -2L3 -24" fill="none" stroke="#725727" stroke-width=".7"/></g></g><g transform="translate(120 113) scale(-1 1)"><path d="M-8 74C-100 67 -90 -35 -26 -70" fill="none" stroke="#345744" stroke-width="2"/><g transform="translate(-62.92 30.69) rotate(-50)"><path d="M0 0C-7 -17 -1 -24 2 -30C13 -18 13 -9 0 0Z" fill="#345744"/><path d="M0 -2L3 -24" fill="none" stroke="#725727" stroke-width=".7"/></g><g transform="translate(-68.47 14.55) rotate(-64)"><path d="M0 0C-7 -17 -1 -24 2 -30C13 -18 13 -9 0 0Z" fill="#345744"/><path d="M0 -2L3 -24" fill="none" stroke="#725727" stroke-width=".7"/></g><g transform="translate(-69.96 -2.44) rotate(-78)"><path d="M0 0C-7 -17 -1 -24 2 -30C13 -18 13 -9 0 0Z" fill="#345744"/><path d="M0 -2L3 -24" fill="none" stroke="#725727" stroke-width=".7"/></g><g transform="translate(-67.29 -19.29) rotate(-92)"><path d="M0 0C-7 -17 -1 -24 2 -30C13 -18 13 -9 0 0Z" fill="#345744"/><path d="M0 -2L3 -24" fill="none" stroke="#725727" stroke-width=".7"/></g><g transform="translate(-60.62 -35) rotate(-106)"><path d="M0 0C-7 -17 -1 -24 2 -30C13 -18 13 -9 0 0Z" fill="#345744"/><path d="M0 -2L3 -24" fill="none" stroke="#725727" stroke-width=".7"/></g><g transform="translate(-50.35 -48.63) rotate(-120)"><path d="M0 0C-7 -17 -1 -24 2 -30C13 -18 13 -9 0 0Z" fill="#345744"/><path d="M0 -2L3 -24" fill="none" stroke="#725727" stroke-width=".7"/></g><g transform="translate(-37.09 -59.36) rotate(-134)"><path d="M0 0C-7 -17 -1 -24 2 -30C13 -18 13 -9 0 0Z" fill="#345744"/><path d="M0 -2L3 -24" fill="none" stroke="#725727" stroke-width=".7"/></g><g transform="translate(-21.63 -66.57) rotate(-148)"><path d="M0 0C-7 -17 -1 -24 2 -30C13 -18 13 -9 0 0Z" fill="#345744"/><path d="M0 -2L3 -24" fill="none" stroke="#725727" stroke-width=".7"/></g><g transform="translate(-4.88 -69.83) rotate(-162)"><path d="M0 0C-7 -17 -1 -24 2 -30C13 -18 13 -9 0 0Z" fill="#345744"/><path d="M0 -2L3 -24" fill="none" stroke="#725727" stroke-width=".7"/></g></g><path d="M79 66H156Q176 66 171 86H163V154Q163 173 141 173H81Q98 170 96 153V86Q76 90 79 66ZM96 153H153Q153 168 141 173" fill="#f6edd8" stroke="#9c8049" stroke-width="2"/><text x="126" y="132" text-anchor="middle" fill="#e5ce91" font-family="Georgia,serif" font-size="37" style="fill:#355340">01</text><path d="M107 92H145M106 140H146" stroke="#b89a59"/><text x="120" y="205" text-anchor="middle" fill="#e5ce91" font-family="Georgia,serif" font-size="9" letter-spacing="1.2" style="fill:#355340">SEASON ARCHIVE</text></svg>
