<svg xmlns="http://www.w3.org/2000/svg" viewBox="0 0 600 360" width="600" height="360" role="img" aria-labelledby="title"><title id="title">Woven Green: herringbone felt with hand-stitched sage edging</title><defs>
<linearGradient id="gold" x2=".8" y2="1"><stop stop-color="#eedca8"/><stop offset=".5" stop-color="#c7a25c"/><stop offset="1" stop-color="#a98242"/></linearGradient>
<radialGradient id="felt"><stop stop-color="#204b39"/><stop offset="1" stop-color="#09231c"/></radialGradient>
<pattern id="weave" width="6" height="6" patternUnits="userSpaceOnUse"><path d="M0 1H6M1 0V6" stroke="#c6d6aa" stroke-opacity=".07" stroke-width=".6"/></pattern>
<pattern id="hatch" width="6" height="6" patternUnits="userSpaceOnUse" patternTransform="rotate(45)"><path d="M0 0V6" stroke="#c8a45b" stroke-opacity=".12" stroke-width="1"/></pattern>
</defs><rect x="10" y="10" width="580" height="340" rx="164" fill="#19382c" stroke="#6d7154" stroke-width="8"/><rect x="24" y="24" width="552" height="312" rx="152" fill="url(#felt)" stroke="#809676" stroke-width="1.5"/><rect x="24" y="24" width="552" height="312" rx="152" fill="url(#weave)"/><rect x="32" y="32" width="536" height="296" rx="143" fill="none" stroke="#9ba586" stroke-width="1" stroke-dasharray="3 5"/><g transform="translate(300 57) scale(0.3)"><path d="M-4 14C-21 31 -34 2 -15 -3C-29 -28 27 -28 15 -3C34 2 21 31 4 14C3 24 7 29 10 31H-10C-7 29 -3 24 -4 14Z" fill="#71866a" /></g><g transform="translate(300 298) scale(0.3)"><path d="M-4 14C-21 31 -34 2 -15 -3C-29 -28 27 -28 15 -3C34 2 21 31 4 14C3 24 7 29 10 31H-10C-7 29 -3 24 -4 14Z" fill="#71866a" /></g></svg>
